HIERARCHY
ROOT Hips
{
	OFFSET	0.00	0.00	0.00
	CHANNELS 6 Xposition Yposition Zposition Zrotation Xrotation Yrotation
	JOINT Spine
	{
		OFFSET	 0.00	0.01	 0.00
		CHANNELS 3 Zrotation Xrotation Yrotation
		JOINT Spine1
		{
			OFFSET	 0.00	 2.45913012437421	 0.00
			CHANNELS 3 Zrotation Xrotation Yrotation
            JOINT Neck
            {
                OFFSET	 0.00	 2.48462964506057	 0.00
                CHANNELS 3 Zrotation Xrotation Yrotation
                JOINT Head
                {
                    OFFSET	 0.00	 0.927524780924562	 0.00
                    CHANNELS 3 Zrotation Xrotation Yrotation
                    End Site 
                    {
                        OFFSET	 0.00	 1.14999962169752	 0.00
                    }
                }
            }
			JOINT LeftShoulder
			{
				OFFSET	 0.00	 2.48462964506057	 0.00
				CHANNELS 3 Zrotation Xrotation Yrotation
				JOINT LeftUpArm
				{
					OFFSET	 0.00	 1.24881979654096	 0.00
					CHANNELS 3 Zrotation Xrotation Yrotation
					JOINT LeftForeArm
					{
						OFFSET	 0.00	2.59758046908119	 0.00
						CHANNELS 3 Zrotation Xrotation Yrotation
						JOINT LeftHand
						{
							OFFSET	 0.00	2.45542024364365	 0.00
							CHANNELS 3 Zrotation Xrotation Yrotation
							JOINT LeftHandThumb 
							{
								OFFSET	 0.00	0.00	 0.00
								CHANNELS 3 Zrotation Xrotation Yrotation
								End Site
								{
									OFFSET	 0.00	0.00	1.00000003353624
								}
							}
							JOINT L_Wrist_End 
							{
								OFFSET	 0.00	0.99999967115358	 0.00
								CHANNELS 3 Zrotation Xrotation Yrotation
								End Site 
								{
									OFFSET	 0.00	 0.00	 0.00
								}
							}
						}
					}
				}
			}
			JOINT RightShoulder
			{
				OFFSET	 0.00	 2.48462964506057	 0.00
				CHANNELS 3 Zrotation Xrotation Yrotation
				JOINT RightUpArm
				{
					OFFSET	 0.00	 1.24881979654096	 0.00
					CHANNELS 3 Zrotation Xrotation Yrotation
					JOINT RightForeArm
					{
						OFFSET	 0.00	2.59758046908119	 0.00
						CHANNELS 3 Zrotation Xrotation Yrotation
						JOINT RightHand
						{
							OFFSET	 0.00	2.45542024364365	 0.00
							CHANNELS 3 Zrotation Xrotation Yrotation
							JOINT RightHandThumb 
							{
								OFFSET	 0.00	0.00	 0.00
								CHANNELS 3 Zrotation Xrotation Yrotation
								End Site
								{
									OFFSET	 0.00	0.00	1.00000003353624
								}
							}
							JOINT R_Wrist_End 
							{
								OFFSET	 0.00	0.99999967115358	 0.00
								CHANNELS 3 Zrotation Xrotation Yrotation
								End Site 
								{
									OFFSET	 0.00	 0.00	 0.00
								}
							}
						}
					}
				}
			}
		}
	}
	JOINT LeftUpLeg
	{
		OFFSET	 1.2719394002717	 0.00	 0.00
		CHANNELS 3 Zrotation Xrotation Yrotation
		JOINT LeftLowLeg
		{
			OFFSET	 0.00	-4.3429100912261	 0.00
			CHANNELS 3 Zrotation Xrotation Yrotation
			JOINT LeftFoot
			{
				OFFSET	 0.00	-4.48767017425826	 0.00
				CHANNELS 3 Zrotation Xrotation Yrotation
				JOINT LeftToeBase
                {
                    OFFSET	 0.00	0.00	 1.51507020887566
                    CHANNELS 3 Zrotation Xrotation Yrotation
                    End Site 
                    {
                        OFFSET	 0.00	0.00	 0.75000010571191
                    }
                }
			}
		}
	}
	JOINT RightUpLeg
	{
		OFFSET	 -1.2719393604653	 0.00	 0.00
		CHANNELS 3 Zrotation Xrotation Yrotation
		JOINT RightLowLeg
		{
			OFFSET	 0.00	-4.3429100912261	 0.00
			CHANNELS 3 Zrotation Xrotation Yrotation
			JOINT RightFoot
			{
				OFFSET	 0.00	-4.48767017425826	 0.00
				CHANNELS 3 Zrotation Xrotation Yrotation
				JOINT RightToeBase
                {
                    OFFSET	 0.00	0.00	 1.51507020887566
                    CHANNELS 3 Zrotation Xrotation Yrotation
                    End Site 
                    {
                        OFFSET	 0.00	0.00	 0.749999965609858
                    }
                }   
			}
		}
	}
}
MOTION 
Frames:	8 
Frame Time: 0.02 
 1.4814300537109375 4.8089599609375 9.361519775390626 -164.267 78.633 162.615 1.85212 -9.42266 -0.251964 3.678 -9.78432 0.165202 -5.08253 62.4678 -2.37475 97.1332 -80.4333 441.419 -113.196304 -8.89967 -13.9884 15.7578 13.8536 -27.2825 0.0 6.237 0.0 23.2197 -4.79963 24.3325 0.0 0.0 0.0 0.0 0.0 0.0 109.8965 -5.74729 -353.625 -9.13949 -1.00682 58.5885 0.0 14.1855 0.0 -20.8674 -19.4705 -49.2872 0.0 0.0 0.0 0.0 0.0 0.0 2.46605 -7.927 3.26015 0.0 5.08182 0.0 -16.1513 0.7161999 9.39586 0.0 -31.1519 0.0 8.22744 -5.96375 4.65872 0.0 7.02761 0.0 15.7247 2.4116 -21.2593 0.0 -30.993599 0.0 
  1.483350067138672 4.809880065917969 9.3614501953125 -164.275 78.5551 162.647 1.89054 -9.47948 -0.246587 3.62272 -9.79681 0.162999 -5.05663 62.6209 -2.38541 96.7025 -80.4138 440.991 -113.187 -8.92574 -14.0272 15.6949 13.7793 -27.1077 0.0 6.31809 0.0 23.1595 -4.76688 24.299 0.0 0.0 0.0 0.0 0.0 0.0 109.955795 -5.84567 -353.633 -9.22347 -0.958436 58.6583 0.0 14.1289 0.0 -20.959 -19.1746 -49.17 0.0 0.0 0.0 0.0 0.0 0.0 2.46976 -8.00269 3.19416 0.0 5.06363 0.0 -16.1583 0.6970997 9.43523 0.0 -31.1533 0.0 8.23401 -6.03759 4.62804 0.0 7.00928 0.0 15.749 2.4314003 -21.2305 0.0 -31.0592 0.0 
  1.4847799682617187 4.811430053710938 9.361480102539062 -164.283 78.5322 162.654 1.89832 -9.46648 -0.235485 3.5912 -9.85684 0.175945 -4.92427 62.8171 -2.53412 95.7729 -80.4089 440.082 -113.2015 -8.9587 -13.9943 15.7001 13.7287 -26.9714 0.0 6.2989 0.0 23.106 -4.77789 24.2726 0.0 0.0 0.0 0.0 0.0 0.0 109.9667 -5.89548 -353.608 -9.26648 -0.979525 58.7285 0.0 14.1408 0.0 -21.0516 -19.1656 -49.1584 0.0 0.0 0.0 0.0 0.0 0.0 2.46697 -8.03275 3.22647 0.0 5.05992 0.0 -16.1377 0.7101002 9.41609 0.0 -31.1614 0.0 8.22805 -6.05929 4.57758 0.0 6.9875 0.0 15.7513 2.4554996 -21.1919 0.0 -31.1259 0.0 
  1.4860899353027344 4.812869873046875 9.361610107421875 -164.261 78.5121 162.621 1.90977 -9.45268 -0.223222 3.56369 -9.89742 0.188248 -4.95536 63.0482 -2.47654 95.2923 -80.388 439.6 -113.2232 -9.03498 -14.048 15.6909 13.7567 -26.9188 0.0 6.22163 0.0 23.0974 -4.75683 24.2681 0.0 0.0 0.0 0.0 0.0 0.0 109.9811 -5.95728 -353.562 -9.31463 -0.980428 58.6932 0.0 14.1317 0.0 -21.1971 -19.0782 -49.0866 0.0 0.0 0.0 0.0 0.0 0.0 2.47231 -8.05121 3.26238 0.0 5.04244 0.0 -16.138 0.73270035 9.35393 0.0 -31.2371 0.0 8.2294 -6.07773 4.56241 0.0 6.96923 0.0 15.7552 2.4789 -21.1695 0.0 -31.1206 0.0 
  1.48718994140625 4.814410095214844 9.361669921875 -164.276 78.4996 162.629 1.89891 -9.4356 -0.221256 3.55725 -9.94188 0.195057 -5.0952 63.3095 -2.28939 94.5924 -80.3807 438.89 -113.236 -9.10655 -14.121 15.6708 13.744 -26.8351 0.0 6.18441 0.0 23.0288 -4.84928 24.2875 0.0 0.0 0.0 0.0 0.0 0.0 109.9866 -5.98492 -353.475 -9.3685 -1.00799 58.6194 0.0 14.1012 0.0 -21.3904 -18.8422 -49.2773 0.0 0.0 0.0 0.0 0.0 0.0 2.46585 -8.07246 3.21139 0.0 5.04711 0.0 -16.137 0.7087002 9.43497 0.0 -31.145 0.0 8.22175 -6.08797 4.54278 0.0 6.94659 0.0 15.7551 2.4963999 -21.1445 0.0 -31.1266 0.0 
  1.4884500122070312 4.816019897460937 9.36166015625 -164.252 78.498 162.592 1.90777 -9.40785 -0.217064 3.52261 -10.0064 0.200719 -5.04085 63.6057 -2.33726 93.5676 -80.3611 437.902 -113.2454 -9.12732 -14.1924 15.6807 13.6841 -26.8921 0.0 6.15545 0.0 22.9875 -4.98906 24.3991 0.0 0.0 0.0 0.0 0.0 0.0 110.0171 -6.0259 -353.408 -9.4531 -1.02489 58.6826 0.0 14.0861 0.0 -21.3718 -18.7144 -49.3491 0.0 0.0 0.0 0.0 0.0 0.0 2.46588 -8.08518 3.22713 0.0 5.05394 0.0 -16.1433 0.71030045 9.42415 0.0 -31.1754 0.0 8.21644 -6.1108 4.46521 0.0 6.96765 0.0 15.7572 2.5159998 -21.06 0.0 -31.123 0.0 
  1.4896600341796875 4.817460021972656 9.361749877929688 -164.239 78.4998 162.564 1.90967 -9.39184 -0.223138 3.50336 -10.0525 0.196223 -5.13296 63.9117 -2.21646 92.5046 -80.3624 436.818 -113.2845 -9.18998 -14.2343 15.7317 13.6491 -26.8879 0.0 6.08163 0.0 22.9821 -4.98339 24.5364 0.0 0.0 0.0 0.0 0.0 0.0 110.0305 -6.07817 -353.335 -9.51705 -1.02345 58.4539 0.0 14.1151 0.0 -21.3891 -18.7522 -48.9887 0.0 0.0 0.0 0.0 0.0 0.0 2.46135 -8.08925 3.23113 0.0 5.05139 0.0 -16.1414 0.71640015 9.42006 0.0 -31.2084 0.0 8.21184 -6.12062 4.46986 0.0 6.97279 0.0 15.7619 2.5242996 -21.0501 0.0 -31.1378 0.0 
  1.490469970703125 4.8185598754882815 9.361849975585937 -164.209 78.5038 162.515 1.90763 -9.39678 -0.225693 3.48564 -10.0527 0.194502 -5.38433 64.2293 -1.89686 91.5831 -80.3611 435.838 -113.3032 -9.24202 -14.3011 15.764 13.6121 -26.8382 0.0 6.02229 0.0 22.9733 -5.03379 24.5341 0.0 0.0 0.0 0.0 0.0 0.0 110.041595 -6.11203 -353.263 -9.57123 -1.01013 58.5496 0.0 14.1496 0.0 -21.51 -18.7933 -49.1812 0.0 0.0 0.0 0.0 0.0 0.0 2.4643 -8.09553 3.293 0.0 5.066 0.0 -16.1215 0.7222996 9.38398 0.0 -31.2304 0.0 8.21389 -6.12779 4.48157 0.0 6.98236 0.0 15.7678 2.5316 -21.0475 0.0 -31.156 0.0 
